# xmcd
#
# Track frame offsets:
#	150
#	15622
#	32356
#	49798
#	72237
#	94385
#	108011
#	124307
#	147721
#	161210
#	176441
#	189066
#
# Disc length: 2759 seconds
#
# Revision: 1
# Processed by: cddbd v1.5.2PL0 Copyright (c) Steve Scherf et al.
# Submitted via: audiograbber 1.83.01
#
DISCID=9f0ac50c
DTITLE=Piney Brown - One Of These Days
DYEAR=2006
DGENRE=Blues
TTITLE0=Ain't It A Shame
TTITLE1=Just A Little Bit
TTITLE2=In The Evening (When The Sun Goes Down)
TTITLE3=Strange Things Are Happening
TTITLE4=Kokomo
TTITLE5=Cream In My Coffee (Sugar In My Tea)
TTITLE6=(They Call Her) Rosalee
TTITLE7=One Of These Days
TTITLE8=Talkin' About You
TTITLE9=My Love
TTITLE10=Walk A Block And Fall
TTITLE11=She's Super Bad
EXTD=
EXTT0=
EXTT1=
EXTT2=
EXTT3=Written by Percy Mayfield
EXTT4=
EXTT5=
EXTT6=
EXTT7=
EXTT8=
EXTT9=
EXTT10=
EXTT11=
PLAYORDER=
